<svg width="76" height="91" viewBox="0 0 76 91" fill="none" xmlns="http://www.w3.org/2000/svg">
<path d="M1.13116 29.047L2.19163 0L17.533 1.12259C27.8078 1.91776 33.0394 2.43228 33.2279 2.66615C33.4636 2.90003 34.2884 8.18556 35.7023 18.5227C36.8335 26.7551 37.8233 31.222 38.6716 31.9237C38.7659 32.0172 38.8602 31.9938 38.9544 31.8535C39.6614 30.4035 40.6512 25.2349 41.9237 16.3477C43.2434 7.46055 44.1153 2.78309 44.5395 2.31534C45.0109 1.8476 50.3839 2.0347 60.6586 2.87664L76 4.13955V31.1519C76 49.1601 75.6465 63.6369 74.9395 74.5821L73.8084 91L63.4865 90.5089L53.2353 90.0177L53.5181 67.6361C53.6124 63.4264 53.636 59.7078 53.5888 56.4803C53.5888 53.2061 53.5417 50.6101 53.4474 48.6924C53.4003 46.7278 53.3296 45.7923 53.2353 45.8859C52.9054 46.2133 51.5386 53.019 49.1349 66.303C46.7783 79.5402 45.6 86.8137 45.6 88.1234C45.6 88.4508 44.7988 88.6847 43.1963 88.825C41.6409 88.9653 39.7792 88.9653 37.6112 88.825L29.5516 88.3338L26.7944 67.6361C25.9932 61.9296 25.2155 56.9715 24.4614 52.7618C23.7544 48.5053 23.2595 46.2367 22.9767 45.9561C22.4112 45.4883 22.0812 50.8674 21.987 62.0933C21.987 63.4498 21.987 64.8062 21.987 66.1627C21.987 71.9627 21.822 77.0378 21.4921 81.3878C21.1622 85.6911 20.7615 87.983 20.2902 88.2637C19.866 88.4976 18.5935 88.5911 16.4726 88.5443C14.3516 88.5443 11.995 88.3806 9.40279 88.0532L0 87.0008V72.5474C0 62.9586 0.377054 48.4585 1.13116 29.047Z" fill="white"/>
</svg>
