<svg width="155" height="41" viewBox="0 0 155 41" fill="none" xmlns="http://www.w3.org/2000/svg">
<path d="M135.939 4.39878C136.407 4.26765 137.306 4.15526 138.636 4.0616C139.966 3.94921 141.334 3.88364 142.739 3.86491L147.824 3.80872L151.365 21.0048C152.339 25.7253 153.135 29.7995 153.753 33.2275C154.371 36.6555 154.624 38.4163 154.512 38.5099C154.268 38.7347 152.713 38.9595 149.847 39.1843C149.079 39.2405 148.489 39.278 148.077 39.2967C147.684 39.3341 147.291 39.3435 146.897 39.3248C146.504 39.3248 146.232 39.306 146.082 39.2686C145.932 39.2311 145.783 39.1468 145.633 39.0157C145.483 38.8846 145.38 38.7441 145.324 38.5942C145.267 38.4444 145.202 38.229 145.127 37.948C144.827 36.899 144.677 35.8687 144.677 34.8572C144.677 34.2765 144.556 33.8831 144.312 33.6771C144.069 33.4523 143.628 33.3399 142.992 33.3399C142.579 33.3399 142.27 33.368 142.064 33.4242C141.877 33.4616 141.718 33.6021 141.587 33.8456C141.455 34.0704 141.381 34.3608 141.362 34.7167C141.343 35.0539 141.334 35.5877 141.334 36.3183C141.334 36.9364 141.315 37.4235 141.278 37.7794C141.24 38.154 141.137 38.5006 140.968 38.819C140.819 39.1375 140.631 39.3622 140.406 39.4934C140.182 39.6245 139.816 39.7369 139.311 39.8305C138.805 39.9429 138.262 40.0085 137.681 40.0272C137.1 40.046 136.304 40.0553 135.293 40.0553H131.387L131.752 35.5034C132.97 19.9745 133.757 10.9363 134.112 8.38871C134.393 6.27199 134.768 5.03567 135.236 4.67976C135.368 4.5861 135.602 4.49244 135.939 4.39878ZM143.048 21.6229C142.842 20.2555 142.617 19.0379 142.373 17.9702C142.149 16.9025 141.971 16.303 141.839 16.1719C141.727 16.0782 141.633 16.2656 141.558 16.7339C141.409 17.6517 141.334 19.1316 141.334 21.1734C141.334 22.0351 141.334 22.7375 141.334 23.2807C141.352 23.8052 141.371 24.2923 141.39 24.7418C141.427 25.1727 141.465 25.5005 141.502 25.7253C141.558 25.9501 141.633 26.1374 141.727 26.2872C141.839 26.4371 141.952 26.5308 142.064 26.5682C142.177 26.6057 142.336 26.6244 142.542 26.6244C143.01 26.6244 143.291 26.4746 143.385 26.1748C143.516 25.744 143.404 24.2267 143.048 21.6229Z" fill="white"/>
<path d="M114.809 0.521186C117.469 -0.209365 120.11 -0.171901 122.733 0.633579C125.355 1.43906 127.247 2.78777 128.409 4.67971C128.989 5.63505 129.345 6.84327 129.476 8.30437C129.626 9.74675 129.692 12.8375 129.673 17.5768C129.673 20.0681 129.626 22.1661 129.533 23.8707C129.458 25.5566 129.326 27.0458 129.139 28.3384C128.952 29.6309 128.68 30.6892 128.324 31.5134C127.968 32.3189 127.547 32.9839 127.06 33.5084C126.573 34.0329 125.955 34.4825 125.205 34.8571C123.482 35.7375 121.656 36.2433 119.726 36.3744C117.816 36.4868 116.074 36.262 114.5 35.7001C112.927 35.1381 111.568 34.2577 110.426 33.0588C109.283 31.86 108.571 30.4551 108.29 28.8441C108.159 28.151 108.084 26.5213 108.066 23.955C108.047 21.37 108.094 18.6351 108.206 15.7504C108.393 10.4305 108.59 7.24601 108.796 6.19701C108.965 5.26041 109.349 4.44556 109.948 3.75247C110.061 3.64008 110.238 3.46213 110.482 3.21861C111.006 2.65665 111.69 2.11341 112.533 1.58892C113.376 1.06442 114.135 0.708507 114.809 0.521186ZM119.923 10.3836C119.942 7.9672 119.614 6.68405 118.94 6.53419C118.677 6.47799 118.396 6.59975 118.097 6.89947C117.965 7.03059 117.853 8.24818 117.759 10.5522C117.666 12.8563 117.619 15.5631 117.619 18.6726C117.619 20.3585 117.619 21.754 117.619 22.8592C117.638 23.9644 117.656 24.9666 117.675 25.8657C117.713 26.7649 117.75 27.4579 117.787 27.945C117.844 28.432 117.909 28.8441 117.984 29.1813C118.078 29.5185 118.172 29.7433 118.265 29.8557C118.359 29.9493 118.481 29.9961 118.63 29.9961C118.893 29.9961 119.089 29.7714 119.221 29.3218C119.37 28.8722 119.492 27.8888 119.586 26.3715C119.698 24.8542 119.773 22.906 119.811 20.5271C119.867 18.1481 119.904 14.7669 119.923 10.3836Z" fill="white"/>
<path d="M76.5953 13.3057L77.0168 1.6731L83.1141 2.12267C87.1977 2.44111 89.277 2.64717 89.3519 2.74083C89.4455 2.83449 89.7734 4.95121 90.3353 9.09101C90.7849 12.3879 91.1783 14.1768 91.5154 14.4578C91.5529 14.4952 91.5904 14.4859 91.6278 14.4297C91.9088 13.849 92.3022 11.7791 92.808 8.21997C93.3325 4.66087 93.679 2.78766 93.8476 2.60033C94.0349 2.41301 96.1704 2.48794 100.254 2.82512L106.351 3.33089V14.1487C106.351 21.3605 106.211 27.1581 105.93 31.5414L105.48 38.1164L101.378 37.9197L97.3037 37.723L97.4161 28.7597C97.4535 27.0738 97.4629 25.5846 97.4441 24.2921C97.4441 22.9809 97.4254 21.9412 97.388 21.1732C97.3692 20.3865 97.3411 20.0118 97.3037 20.0493C97.1725 20.1804 96.6293 22.9059 95.674 28.2259C94.7374 33.527 94.2691 36.4399 94.2691 36.9644C94.2691 37.0955 93.9506 37.1892 93.3137 37.2454C92.6956 37.3016 91.9556 37.3016 91.094 37.2454L87.8908 37.0487L86.795 28.7597C86.4765 26.4744 86.1674 24.4888 85.8677 22.8029C85.5867 21.0983 85.39 20.1898 85.2777 20.0774C85.0529 19.8901 84.9217 22.0443 84.8843 26.54C84.8843 27.0832 84.8843 27.6264 84.8843 28.1697C84.8843 30.4924 84.8187 32.5249 84.6876 34.267C84.5565 35.9903 84.3972 36.9082 84.2099 37.0206C84.0413 37.1142 83.5356 37.1517 82.6926 37.133C81.8497 37.133 80.9131 37.0674 79.8828 36.9363L76.1458 36.5148V30.7266C76.1458 26.8865 76.2956 21.0796 76.5953 13.3057Z" fill="white"/>
<path d="M62.2938 1.08294C66.4336 0.820686 68.8688 0.727025 69.5994 0.801954C70.5547 0.876882 71.1354 1.18596 71.3414 1.72919C71.4726 2.02891 71.5756 2.88122 71.6505 4.28612L71.8472 7.7703L68.7845 8.21987L65.7218 8.64134V11.5916V14.5419H68.6721C69.4963 14.5419 70.1332 14.5981 70.5828 14.7105C71.0324 14.8229 71.3976 15.0664 71.6786 15.4411C71.9783 15.8157 72.175 16.3028 72.2687 16.9022C72.3623 17.4829 72.4092 18.3071 72.4092 19.3748C72.4279 20.1616 72.2687 20.6767 71.9315 20.9202C71.5943 21.1637 70.7607 21.3792 69.4308 21.5665L66.3962 22.0161V24.8259C66.3962 25.5377 66.4149 26.1278 66.4524 26.5961C66.4898 27.0644 66.5648 27.4765 66.6771 27.8324C66.8083 28.1883 66.9581 28.4599 67.1267 28.6472C67.314 28.8158 67.5669 28.9469 67.8854 29.0406C68.2225 29.1155 68.5972 29.1436 69.0093 29.1249C69.4214 29.1062 69.9365 29.05 70.5547 28.9563C71.1541 28.8814 71.6131 28.8345 71.9315 28.8158C72.2687 28.7783 72.5684 28.769 72.8306 28.7877C73.1116 28.7877 73.3083 28.8533 73.4207 28.9844C73.5518 29.0968 73.6642 29.2373 73.7579 29.4059C73.8515 29.5557 73.9358 29.7805 74.0108 30.0802C74.3105 31.148 74.4603 32.3936 74.4603 33.8173C74.4603 34.2294 74.451 34.5291 74.4322 34.7164C74.4322 34.9037 74.3854 35.1098 74.2917 35.3346C74.1981 35.5406 74.1044 35.6811 74.0108 35.7561C73.9171 35.8123 73.7017 35.8872 73.3645 35.9808C73.0461 36.0745 72.7276 36.1401 72.4092 36.1775C72.1095 36.215 71.6224 36.2618 70.9481 36.318C67.4639 36.6739 64.3637 36.8893 61.6476 36.9643C58.9502 37.0392 57.5171 36.9549 57.3486 36.7114C57.0676 36.2431 56.5993 30.3987 55.9437 19.1781C55.288 7.93888 55.082 2.18813 55.3255 1.92588C55.4566 1.79476 56.2059 1.6449 57.5733 1.47631C58.9408 1.30772 60.5143 1.1766 62.2938 1.08294Z" fill="white"/>
<path d="M38.6631 0.521186C41.3231 -0.209365 43.9643 -0.171901 46.5868 0.633579C49.2093 1.43906 51.1012 2.78777 52.2626 4.67971C52.8433 5.63505 53.1992 6.84327 53.3303 8.30437C53.4802 9.74675 53.5458 12.8375 53.527 17.5768C53.527 20.0681 53.4802 22.1661 53.3865 23.8707C53.3116 25.5566 53.1805 27.0458 52.9932 28.3384C52.8058 29.6309 52.5342 30.6892 52.1783 31.5134C51.8224 32.3189 51.4009 32.9839 50.9139 33.5084C50.4269 34.0329 49.8087 34.4825 49.0594 34.8571C47.3361 35.7375 45.5097 36.2433 43.5803 36.3744C41.6696 36.4868 39.9275 36.262 38.354 35.7001C36.7805 35.1381 35.4224 34.2577 34.2798 33.0588C33.1371 31.86 32.4253 30.4551 32.1443 28.8441C32.0132 28.151 31.9383 26.5213 31.9195 23.955C31.9008 21.37 31.9476 18.6351 32.06 15.7504C32.2474 10.4305 32.444 7.24601 32.6501 6.19701C32.8187 5.26041 33.2027 4.44556 33.8021 3.75247C33.9145 3.64008 34.0925 3.46213 34.336 3.21861C34.8605 2.65665 35.5442 2.11341 36.3871 1.58892C37.2301 1.06442 37.9887 0.708507 38.6631 0.521186ZM43.777 10.3836C43.7957 7.9672 43.4679 6.68405 42.7935 6.53419C42.5313 6.47799 42.2503 6.59975 41.9506 6.89947C41.8195 7.03059 41.7071 8.24818 41.6134 10.5522C41.5197 12.8563 41.4729 15.5631 41.4729 18.6726C41.4729 20.3585 41.4729 21.754 41.4729 22.8592C41.4916 23.9644 41.5104 24.9666 41.5291 25.8657C41.5666 26.7649 41.604 27.4579 41.6415 27.945C41.6977 28.432 41.7633 28.8441 41.8382 29.1813C41.9318 29.5185 42.0255 29.7433 42.1192 29.8557C42.2128 29.9493 42.3346 29.9961 42.4844 29.9961C42.7467 29.9961 42.9434 29.7714 43.0745 29.3218C43.2244 28.8722 43.3461 27.8888 43.4398 26.3715C43.5522 24.8542 43.6271 22.906 43.6646 20.5271C43.7208 18.1481 43.7582 14.7669 43.777 10.3836Z" fill="white"/>
<path d="M0.44957 13.3057L0.871043 1.6731L6.96834 2.12267C11.0519 2.44111 13.1312 2.64717 13.2061 2.74083C13.2998 2.83449 13.6276 4.95121 14.1896 9.09101C14.6391 12.3879 15.0325 14.1768 15.3697 14.4578C15.4072 14.4952 15.4446 14.4859 15.4821 14.4297C15.7631 13.849 16.1564 11.7791 16.6622 8.21997C17.1867 4.66087 17.5332 2.78766 17.7018 2.60033C17.8892 2.41301 20.0246 2.48794 24.1082 2.82512L30.2055 3.33089V14.1487C30.2055 21.3605 30.065 27.1581 29.784 31.5414L29.3345 38.1164L25.2321 37.9197L21.1579 37.723L21.2703 28.7597C21.3078 27.0738 21.3171 25.5846 21.2984 24.2921C21.2984 22.9809 21.2797 21.9412 21.2422 21.1732C21.2235 20.3865 21.1954 20.0118 21.1579 20.0493C21.0268 20.1804 20.4836 22.9059 19.5282 28.2259C18.5916 33.527 18.1233 36.4399 18.1233 36.9644C18.1233 37.0955 17.8049 37.1892 17.168 37.2454C16.5498 37.3016 15.8099 37.3016 14.9482 37.2454L11.745 37.0487L10.6492 28.7597C10.3308 26.4744 10.0217 24.4888 9.72196 22.8029C9.44098 21.0983 9.24429 20.1898 9.1319 20.0774C8.90711 19.8901 8.77599 22.0443 8.73852 26.54C8.73852 27.0832 8.73852 27.6264 8.73852 28.1697C8.73852 30.4924 8.67296 32.5249 8.54184 34.267C8.41071 35.9903 8.25149 36.9082 8.06417 37.0206C7.89558 37.1142 7.38981 37.1517 6.54687 37.133C5.70392 37.133 4.76732 37.0674 3.73705 36.9363L0 36.5148V30.7266C0 26.8865 0.149857 21.0796 0.44957 13.3057Z" fill="white"/>
</svg>
